<svg width="191" height="28" viewBox="0 0 191 28" fill="none" xmlns="http://www.w3.org/2000/svg">
<path d="M117.557 27.1584V2.32276H129.469C129.757 2.32276 131.158 2.80161 131.525 2.95169C136.274 4.89031 136.813 12.1909 131.891 14.2046C136.24 15.7054 137.53 20.6958 135.26 24.5373C134.667 25.5414 132.596 27.1584 131.439 27.1584H117.557ZM122.931 12.3285H128.036C128.969 12.3285 129.442 11.8157 129.652 11.6174C130.545 10.7723 130.492 8.16719 129.741 7.23094C128.299 5.43348 124.829 6.70742 122.931 6.07313V12.3285ZM122.931 23.4063H128.394C128.862 23.4063 129.492 23.0186 129.686 22.9078C131.715 21.7464 131.592 17.7548 129.625 16.6399C129.501 16.5702 128.944 16.2558 128.573 16.2593H122.931V23.4063Z" fill="#252525"/>
<path d="M15.0455 10.5418C15.0168 10.5418 14.9882 10.5382 14.9631 10.5257C14.5206 10.297 14.4311 8.38338 14.1086 7.68119C12.9174 5.08506 8.57349 5.08685 6.95236 7.33814C5.07148 9.95214 5.18613 18.8144 6.77322 21.6088C8.15791 24.0459 12.6039 24.3265 14.2896 22.1609C15.273 20.8959 14.7177 19.9918 15.0186 18.6768C15.0509 18.5374 14.9452 18.4052 14.8037 18.4052H11.2515C11.1297 18.4052 11.0132 18.357 10.9273 18.2712C10.8413 18.1854 10.7929 18.0693 10.7929 17.9478V14.6709C10.7929 14.5816 10.8467 14.4976 10.9326 14.469C11.0688 14.4261 11.1978 14.2957 11.2407 14.2957H20.0182C20.0432 14.2957 20.2313 14.4726 20.3245 14.5869C20.3567 14.6245 20.3728 14.6727 20.3728 14.7227C20.3227 18.3998 20.7633 22.5397 20.4749 26.1865C20.4517 26.4723 20.3943 26.7296 20.3281 26.9958C20.3048 27.0923 20.2188 27.1602 20.1185 27.1602H15.6653C15.547 27.1602 15.4503 27.0637 15.4503 26.9458V24.9608C15.4503 24.7874 15.2533 24.682 15.1118 24.7839C14.9147 24.9268 14.732 25.1073 14.5565 25.3092C13.942 26.0167 13.2022 26.6135 12.3621 27.0298C8.70605 28.8416 4.29047 27.548 2.37736 25.1001C-0.809381 21.0228 -0.689364 9.49473 2.1212 5.19763C5.93489 -0.632506 17.9313 0.0946975 19.7781 7.38817C19.9805 8.18327 20.3137 9.70557 19.9143 10.4274C19.8749 10.4971 19.8032 10.5418 19.7226 10.5418H15.0455Z" fill="#252525"/>
<path d="M67.4 0.284092V26.8744C67.4 27.0316 67.2729 27.1584 67.1152 27.1584H62.8483C62.6907 27.1584 62.5635 27.0316 62.5635 26.8744V24.7839C62.5635 24.5159 62.2303 24.3944 62.0566 24.5963C60.808 26.0382 60.5698 27.1299 58.3432 27.682C46.8287 30.5336 45.8578 11.3494 52.2993 7.53826C55.5165 5.63538 60.2778 5.9284 61.7771 9.74667C61.813 9.83779 61.89 9.90569 61.9849 9.92355L62.0422 9.93427C62.2178 9.97001 62.3826 9.83422 62.3826 9.65554V0.284092C62.3826 0.126859 62.5098 0 62.6674 0H67.1134C67.2711 0 67.3983 0.126859 67.3983 0.284092H67.4ZM57.3239 10.5882C53.4225 11.101 53.3562 16.0092 53.6088 19.0252C53.8363 21.7321 55.1994 23.8548 58.1748 23.7744C62.1623 23.6654 62.7964 19.1306 62.5599 15.9931C62.3163 12.7645 61.0534 10.0987 57.3239 10.5882Z" fill="#252525"/>
<path d="M156.876 13.2219C156.399 13.0807 156.888 11.4083 157.014 11.0367C158.941 5.4031 169.388 4.95642 172.623 9.30534C174.911 12.3821 173.327 19.1199 173.802 22.8703C173.963 23.0311 175.835 22.579 176.132 23.1365V27.1567H169.146V23.9405C168.811 23.8655 168.799 24.0513 168.638 24.2371C168.177 24.7731 167.96 25.2788 167.357 25.8184C162.479 30.1745 153.334 26.7082 156.091 19.5845C157.791 15.1926 163.708 16.061 167.359 14.9211C168.681 14.5083 168.754 13.9759 168.609 12.5947C168.252 9.21243 161.791 9.71808 161.625 13.2201H156.878L156.876 13.2219ZM168.609 17.3314C166.556 19.0324 161.161 17.8567 161.071 21.3515C160.989 24.5212 165.569 24.2389 167.359 22.6058C167.797 22.2056 168.609 21.0192 168.609 20.4582V17.3314Z" fill="#252525"/>
<path d="M155.532 18.0461H141.918C140.863 23.3366 147.633 26.2651 150.069 21.2622H155.174C154.676 28.0715 145.385 29.4616 140.541 26.4777C135.808 23.5635 135.86 14.5137 138.44 10.1987C140.742 6.3465 146.191 5.73901 150.16 7.05584C154.787 8.59064 155.984 13.6846 155.532 18.0461ZM150.517 15.0086C150.708 8.6907 141.727 8.85687 141.918 15.0086H150.517Z" fill="#252525"/>
<path d="M87.6418 18.0461H74.0279C73.8774 20.0972 74.4184 22.6648 76.5877 23.4438C78.7569 24.2228 81.4546 23.71 82.0888 21.2622H87.2836C87.0077 28.3305 76.5733 29.6295 72.0557 25.9988C68.0807 22.8042 68.0198 14.2796 70.5492 10.1987C73.0462 6.16961 79.0937 5.55676 83.1671 7.40961C86.9486 9.13024 88.2688 14.2385 87.6418 18.0443V18.0461ZM82.8053 15.0086C82.5814 8.73716 74.0333 8.8122 74.0279 15.0086H82.8053Z" fill="#252525"/>
<path d="M102.51 27.1584V14.0259C102.51 13.4488 101.689 11.964 101.168 11.612C99.8406 10.7133 96.9745 10.8402 95.7923 11.9729C95.4286 12.3231 94.6261 13.7525 94.6261 14.2046V27.1584H89.2522V7.41497L89.5209 7.14696H94.0887C94.2482 8.07606 94.4631 9.09808 94.0887 10.004L94.5366 10.0075C96.0377 5.09399 104.634 5.46921 106.886 9.48044C107.221 10.0754 107.882 12.1605 107.882 12.7752V26.8904L107.613 27.1584H102.508H102.51Z" fill="#252525"/>
<path d="M29.204 6.48229C39.015 5.37809 42.2787 13.9723 39.7243 22.1574C37.3311 29.8243 24.4946 30.0101 21.9886 22.336C19.9089 15.9699 21.3348 7.36673 29.2058 6.48229H29.204ZM30.0961 10.5882C27.5291 10.9223 26.5779 13.1165 26.3809 15.4571C26.0925 18.8948 26.3361 23.9048 30.9469 23.7744C34.1946 23.6814 35.1511 21.1621 35.3428 18.3212C35.5882 14.6709 34.8376 9.97179 30.0961 10.5882Z" fill="#252525"/>
<path d="M41.9635 27.1584V0.178674H47.1583V27.1584H41.9635Z" fill="#252525"/>
<path d="M183.119 27.1584H177.924V11.4351H174.52V7.14696H182.581V11.0778C183.187 11.0438 183.255 10.163 183.581 9.66269C184.604 8.09214 185.642 7.17733 187.552 6.83428C188.566 6.65203 190.14 6.54661 191 7.05762V11.8818C191 11.9926 190.735 12.1284 190.57 12.1409C189.968 12.182 188.938 11.755 188.048 11.7943C186.33 11.8693 184.392 12.5626 183.674 14.226C183.434 14.7817 183.117 16.3272 183.117 16.8865V27.1602L183.119 27.1584Z" fill="#252525"/>
</svg>
